<?xml version="1.0" standalone="no"?>
<!DOCTYPE svg PUBLIC "-//W3C//DTD SVG 20010904//EN"
 "http://www.w3.org/TR/2001/REC-SVG-20010904/DTD/svg10.dtd">
<svg version="1.0" xmlns="http://www.w3.org/2000/svg"
 width="198.000000pt" height="198.000000pt" viewBox="0 0 198.000000 198.000000"
 preserveAspectRatio="xMidYMid meet">

<g transform="translate(0.000000,198.000000) scale(0.100000,-0.100000)"
fill="#000000" stroke="none">
<path d="M790 1955 c-189 -38 -344 -120 -489 -259 -93 -90 -150 -169 -205
-287 -147 -314 -122 -683 67 -964 145 -216 335 -349 593 -416 127 -33 331 -33
458 0 376 98 640 361 737 737 32 124 32 320 1 447 -48 192 -142 357 -279 488
-136 130 -309 220 -491 255 -91 17 -304 17 -392 -1z m297 -16 c407 -45 738
-339 840 -745 26 -106 24 -324 -5 -434 -90 -340 -348 -604 -688 -702 -68 -20
-102 -23 -244 -23 -142 0 -176 3 -244 23 -176 51 -328 143 -451 274 -355 378
-351 944 9 1317 177 183 392 280 669 300 10 0 61 -4 114 -10z"/>
<path d="M850 1888 c-36 -5 -105 -23 -155 -39 -317 -106 -546 -372 -604 -703
-18 -101 -17 -106 29 -106 l40 0 0 50 0 50 118 0 118 0 13 44 c52 177 249 355
442 401 248 58 515 -53 658 -274 22 -35 48 -88 58 -117 l16 -53 116 -3 116 -3
-3 -47 -4 -48 47 0 47 0 -6 58 c-60 509 -530 864 -1046 790z m330 -73 c7 -8
20 -15 30 -15 28 0 43 -25 24 -40 -14 -12 -14 -14 1 -22 19 -11 10 -29 -10
-22 -12 5 -14 -1 -9 -27 4 -19 7 -38 8 -44 0 -5 -16 -11 -37 -13 -44 -4 -63
22 -32 44 10 8 16 14 13 14 -4 0 -13 3 -21 6 -10 4 -16 -5 -21 -31 -6 -31 -9
-35 -22 -24 -8 7 -13 18 -10 24 3 8 -2 11 -15 8 -22 -6 -26 16 -7 35 6 6 12
26 12 44 1 25 9 37 35 55 40 27 45 28 61 8z m-312 -38 c7 -8 6 -18 -4 -31 -18
-26 -18 -37 1 -30 15 6 45 -11 45 -26 0 -3 -23 -17 -50 -30 -47 -22 -52 -23
-67 -7 -16 15 -15 18 0 35 19 20 23 52 7 52 -19 0 -10 25 13 36 31 16 43 16
55 1z m-305 -98 c18 -8 27 -22 31 -49 3 -22 13 -41 23 -44 15 -6 15 -9 -5 -28
-17 -18 -23 -19 -36 -8 -14 11 -16 8 -16 -19 0 -36 -23 -42 -42 -11 -7 11 -22
20 -33 20 -20 1 -20 1 -1 15 16 12 17 18 8 27 -16 16 -15 28 3 28 7 0 19 -8
24 -17 8 -14 11 -15 11 -3 0 12 4 10 15 -4 14 -19 15 -19 15 7 0 15 -4 27 -10
27 -5 0 -10 9 -10 19 0 11 -5 21 -12 23 -6 2 -8 10 -4 16 9 15 9 15 39 1z
m933 -45 c-4 -13 -2 -26 4 -29 21 -13 9 -27 -20 -23 -37 5 -37 -2 -5 -40 31
-37 31 -42 0 -42 -18 0 -29 8 -37 28 -17 38 -16 37 -37 18 -15 -14 -24 -15
-40 -6 -39 20 -18 85 24 74 21 -5 25 -3 25 16 0 13 5 20 13 17 21 -8 47 12 40
31 -6 15 -4 15 16 -3 15 -13 20 -26 17 -41z m-1159 -205 c-1 -17 10 -28 56
-51 47 -24 56 -32 46 -44 -13 -16 -55 -19 -64 -4 -3 6 2 10 12 10 13 0 10 5
-12 19 -16 10 -32 16 -35 13 -3 -2 1 -7 8 -9 22 -8 13 -42 -13 -49 -29 -7 -24
-21 13 -35 25 -10 26 -11 9 -24 -16 -12 -24 -9 -63 17 -36 24 -43 34 -38 50 3
11 2 18 -3 15 -4 -3 -17 1 -27 9 -17 12 -17 14 -3 20 10 3 23 4 31 1 9 -4 16
4 21 21 13 52 68 87 62 41z m1343 -16 c0 -15 2 -14 14 3 14 18 16 18 48 -14
27 -26 30 -34 18 -42 -8 -5 -18 -6 -23 -3 -5 3 -4 -5 3 -17 13 -25 5 -73 -12
-68 -6 2 -16 12 -22 21 -8 13 -7 20 4 27 13 8 13 11 -2 26 -15 15 -16 15 -15
-2 1 -11 -3 -18 -9 -17 -7 1 -10 -6 -7 -17 4 -16 0 -19 -23 -18 -16 1 -41 -2
-56 -6 -22 -6 -29 -4 -34 9 -9 23 12 66 29 59 8 -3 17 2 21 11 3 9 10 13 16
10 5 -3 10 -1 10 4 0 6 -11 11 -25 11 -34 0 -32 28 3 33 55 8 62 7 62 -10z"/>
<path d="M1187 1779 c7 -7 15 -10 18 -7 3 3 -2 9 -12 12 -14 6 -15 5 -6 -5z"/>
<path d="M1110 1770 c0 -5 4 -10 9 -10 6 0 13 5 16 10 3 6 -1 10 -9 10 -9 0
-16 -4 -16 -10z"/>
<path d="M1162 1745 c-11 -12 -10 -15 3 -15 8 0 15 7 15 15 0 18 -2 18 -18 0z"/>
<path d="M300 1384 c0 -8 5 -12 10 -9 6 4 8 11 5 16 -9 14 -15 11 -15 -7z"/>
<path d="M1600 1319 c0 -5 5 -7 10 -4 6 3 10 8 10 11 0 2 -4 4 -10 4 -5 0 -10
-5 -10 -11z"/>
<path d="M850 1544 c-165 -44 -300 -152 -373 -299 -14 -27 -28 -63 -32 -80 -3
-16 5 -4 18 27 82 191 248 325 440 352 l47 7 0 -49 c0 -48 -2 -50 -79 -125
-77 -75 -105 -89 -129 -65 -19 19 -14 56 9 63 11 4 18 9 16 12 -13 13 -47 -20
-47 -45 0 -36 17 -52 53 -52 23 0 46 16 103 72 l74 71 0 -76 0 -75 -48 -16
c-98 -33 -169 -106 -194 -199 -11 -44 -14 -46 -52 -50 l-41 -4 42 -1 c35 -2
41 -5 37 -19 -5 -15 -4 -16 5 -3 6 8 11 26 11 40 1 77 98 194 187 224 135 46
289 -19 349 -149 30 -64 33 -170 5 -231 -80 -177 -303 -228 -446 -102 -50 44
-95 124 -95 168 l0 25 -91 -3 c-76 -3 -90 -6 -87 -19 2 -9 10 -19 18 -21 13
-5 13 -3 1 11 -12 16 -7 17 68 17 72 0 81 -2 81 -18 0 -11 14 -46 31 -80 35
-71 89 -118 163 -143 l51 -18 3 -77 3 -78 -74 72 c-59 57 -81 72 -105 72 -37
0 -54 -20 -50 -57 2 -19 10 -29 23 -31 19 -4 19 -3 2 10 -12 9 -18 23 -15 39
2 19 10 25 36 27 29 3 41 -5 107 -71 74 -73 75 -76 75 -126 0 -28 -3 -51 -7
-51 -43 1 -158 37 -216 67 -127 66 -224 180 -275 323 -15 40 -21 52 -18 30 3
-19 24 -71 46 -116 31 -63 56 -96 112 -150 87 -82 150 -118 254 -144 203 -52
395 1 545 150 79 78 143 186 154 260 4 23 -2 13 -18 -30 -51 -143 -148 -257
-274 -323 -58 -30 -172 -66 -215 -67 -5 0 -8 23 -8 51 0 50 1 53 75 126 66 66
78 74 107 71 26 -2 34 -8 36 -27 3 -16 -3 -30 -15 -39 -17 -13 -17 -14 2 -10
13 2 21 12 23 31 4 37 -13 57 -50 57 -24 0 -46 -15 -105 -72 l-74 -72 3 78 3
79 42 12 c88 26 172 113 196 203 l11 42 79 0 c73 0 78 -1 66 -17 -12 -14 -12
-16 1 -11 8 2 16 12 18 21 3 15 -8 17 -82 17 -85 0 -86 0 -86 24 0 22 5 25 43
29 l42 4 -42 1 c-34 2 -43 6 -43 20 0 11 -14 47 -31 81 -35 71 -93 121 -170
146 l-49 17 0 75 0 76 74 -71 c57 -56 80 -72 103 -72 36 0 53 16 53 52 0 25
-34 58 -47 45 -2 -3 5 -8 16 -12 23 -7 28 -44 9 -63 -24 -24 -52 -10 -129 65
-78 75 -79 77 -79 126 l0 49 43 -7 c197 -32 359 -159 438 -343 16 -37 29 -60
29 -51 0 9 -18 53 -40 97 -71 142 -215 256 -375 297 -74 19 -203 18 -275 -1z
m160 -129 c0 -128 -1 -135 -20 -135 -19 0 -20 7 -20 135 0 128 1 135 20 135
19 0 20 -7 20 -135z m0 -860 c0 -128 -1 -135 -20 -135 -19 0 -20 7 -20 135 0
128 1 135 20 135 19 0 20 -7 20 -135z"/>
<path d="M695 1429 c-127 -63 -214 -235 -133 -263 22 -8 32 -6 48 9 11 10 20
22 20 27 0 4 -9 -1 -21 -13 -39 -39 -77 -8 -65 56 10 53 124 168 183 186 34
10 45 9 58 -1 20 -17 19 -57 -2 -69 -10 -6 -13 -11 -7 -11 18 0 34 23 34 50 0
53 -45 64 -115 29z"/>
<path d="M1182 1438 c-25 -25 -8 -89 23 -88 5 0 2 5 -7 11 -22 12 -23 52 -3
69 13 10 24 11 58 1 59 -18 173 -133 183 -186 12 -64 -26 -95 -65 -56 -12 12
-21 17 -21 13 0 -5 9 -17 20 -27 16 -15 26 -17 48 -9 22 8 28 16 30 47 9 109
-203 288 -266 225z"/>
<path d="M602 1248 c-7 -7 -12 -19 -12 -27 0 -11 5 -9 16 7 19 28 39 28 57 1
18 -25 12 -51 -19 -80 -13 -12 -24 -27 -24 -32 0 -18 48 33 60 64 10 24 10 33
-4 54 -18 27 -54 33 -74 13z"/>
<path d="M1304 1235 c-14 -21 -14 -30 -4 -54 12 -31 60 -82 60 -64 0 5 -11 20
-24 32 -31 29 -37 55 -19 80 18 27 38 27 57 -1 11 -16 16 -18 16 -7 0 43 -60
53 -86 14z"/>
<path d="M816 1090 c-53 -10 -86 -49 -86 -101 l0 -39 261 0 260 0 -7 23 c-9
31 -14 34 -24 17 -7 -11 -4 -17 8 -22 9 -4 -97 -7 -235 -7 l-253 -1 1 38 c0
20 3 30 6 22 9 -24 26 -30 57 -24 18 4 31 1 36 -7 5 -7 20 -13 33 -13 14 -1
23 2 21 6 -3 4 -14 8 -24 8 -10 0 -22 5 -26 11 -4 6 -20 8 -39 5 -44 -9 -53 8
-20 38 18 17 22 26 13 29 -7 3 1 6 18 6 16 1 36 -5 44 -11 12 -11 12 -10 1 4
-10 14 -9 17 6 21 29 8 -8 5 -51 -3z m-32 -34 c-6 -16 -34 -30 -34 -18 0 5 5
13 12 20 16 16 29 15 22 -2z"/>
<path d="M1026 1092 c-2 -4 11 -6 30 -4 19 2 34 6 34 8 0 8 -59 4 -64 -4z"/>
<path d="M898 1083 c6 -2 18 -2 25 0 6 3 1 5 -13 5 -14 0 -19 -2 -12 -5z"/>
<path d="M1105 1071 c1 -8 8 -17 16 -19 12 -3 12 -2 0 6 -11 8 -8 11 15 14
l29 3 -31 6 c-24 4 -31 2 -29 -10z"/>
<path d="M947 1059 c4 -13 8 -18 11 -10 2 7 -1 18 -6 23 -8 8 -9 4 -5 -13z"/>
<path d="M1003 1043 c1 -23 5 -39 9 -35 4 4 3 23 -2 42 l-8 35 1 -42z"/>
<path d="M1212 1049 c10 -5 22 -17 27 -27 6 -9 11 -12 11 -5 0 6 -7 19 -16 27
-8 9 -21 16 -27 16 -7 0 -4 -5 5 -11z"/>
<path d="M876 1035 c4 -8 11 -15 16 -15 6 0 5 6 -2 15 -7 8 -14 15 -16 15 -2
0 -1 -7 2 -15z"/>
<path d="M827 1029 c7 -7 15 -10 18 -7 3 3 -2 9 -12 12 -14 6 -15 5 -6 -5z"/>
<path d="M1158 1034 c-5 -5 -14 -7 -48 -13 -5 -1 27 -21 58 -37 8 -4 21 1 30
11 16 16 16 16 -5 4 -20 -12 -25 -11 -40 4 -16 16 -16 17 0 17 9 0 17 5 17 10
0 11 -4 13 -12 4z"/>
<path d="M910 990 c0 -11 4 -20 9 -20 5 0 7 9 4 20 -3 11 -7 20 -9 20 -2 0 -4
-9 -4 -20z"/>
<path d="M980 985 c0 -8 4 -15 10 -15 5 0 7 7 4 15 -4 8 -8 15 -10 15 -2 0 -4
-7 -4 -15z"/>
<path d="M1015 990 c-4 -6 -4 -14 -1 -17 3 -4 6 0 6 8 0 12 2 12 10 -1 5 -8
12 -12 15 -9 3 4 -1 12 -9 18 -10 9 -16 9 -21 1z"/>
<path d="M1080 992 c0 -12 19 -26 26 -19 2 2 -2 10 -11 17 -9 8 -15 8 -15 2z"/>
<path d="M750 980 c0 -5 12 -10 28 -9 24 0 25 1 7 9 -27 12 -35 12 -35 0z"/>
<path d="M844 864 c3 -9 6 -29 6 -45 0 -16 5 -29 10 -29 6 0 10 20 10 45 0 35
-4 45 -16 45 -11 0 -14 -5 -10 -16z"/>
<path d="M927 873 c-13 -12 -7 -44 8 -49 12 -5 13 -10 4 -20 -9 -11 -8 -14 4
-14 22 0 43 56 27 75 -13 16 -32 19 -43 8z m33 -21 c0 -13 -12 -22 -22 -16
-10 6 -1 24 13 24 5 0 9 -4 9 -8z"/>
<path d="M1010 864 c0 -9 8 -23 18 -30 16 -13 16 -14 -5 -20 -29 -8 -30 -24
-3 -24 26 0 37 27 21 51 -7 12 -7 19 -1 19 5 0 10 5 10 10 0 6 -9 10 -20 10
-12 0 -20 -7 -20 -16z"/>
<path d="M1080 870 c0 -5 4 -10 9 -10 6 0 12 -17 14 -37 3 -35 4 -34 5 10 2
36 -2 47 -13 47 -8 0 -15 -4 -15 -10z"/>
<path d="M91 823 c23 -121 78 -258 140 -350 18 -26 62 -79 98 -117 178 -185
400 -279 661 -279 267 0 488 96 671 291 115 123 206 304 225 450 l7 52 -151 0
-150 0 -6 -33 c-3 -19 -24 -71 -47 -117 -54 -113 -170 -230 -279 -284 -237
-115 -508 -72 -697 113 -74 73 -129 160 -156 248 l-22 73 -151 0 -151 0 8 -47z
m209 -52 c0 -5 -7 -11 -15 -15 -20 -7 -7 -38 14 -31 13 4 25 -11 49 -61 18
-37 47 -84 64 -105 l32 -39 -35 -30 c-19 -16 -36 -29 -39 -29 -8 -1 -54 65
-53 75 0 5 -7 14 -17 21 -9 6 -29 40 -45 74 -24 55 -26 63 -11 71 25 14 20 38
-9 38 -35 0 -31 15 8 28 42 13 57 14 57 3z m1420 -5 c0 -8 -7 -16 -15 -20 -22
-8 -18 -34 5 -41 24 -8 40 1 40 22 0 13 -3 13 -15 3 -12 -10 -15 -10 -15 1 0
24 16 40 33 33 25 -9 22 -60 -5 -78 -12 -9 -17 -16 -10 -16 28 0 9 -20 -25
-26 -35 -7 -36 -8 -15 -17 23 -11 30 -27 10 -27 -6 0 -8 -3 -5 -6 13 -13 -14
-44 -38 -44 -27 0 -32 -9 -14 -27 13 -13 -23 -65 -86 -122 -35 -31 -40 -33
-72 -23 l-35 11 23 -25 c12 -13 19 -24 16 -24 -15 0 -23 -5 -52 -32 -20 -19
-38 -27 -53 -25 -17 3 -22 1 -18 -9 7 -19 -19 -18 -51 3 -26 17 -26 17 -14 -4
18 -34 14 -41 -29 -54 -46 -14 -44 -15 -65 34 l-16 38 35 14 c45 19 51 19 83
-2 30 -20 29 -22 7 32 -3 8 -1 15 5 15 6 0 11 -6 12 -12 0 -7 4 -3 9 10 11 27
33 37 58 27 14 -7 13 -9 -8 -14 -33 -9 -36 -54 -4 -59 12 -2 24 4 27 12 4 10
1 13 -9 9 -20 -7 -18 14 3 26 14 7 15 12 4 25 -21 25 -3 39 41 33 38 -5 39 -5
22 14 -16 18 -15 21 37 76 30 32 70 82 89 111 28 44 38 52 64 53 30 0 30 1 9
11 -13 6 -23 17 -23 25 0 8 4 12 9 9 5 -4 7 3 4 14 -3 12 2 29 12 40 21 23 35
26 35 6z m-1250 -284 c0 -5 -9 -17 -20 -27 -11 -10 -20 -24 -20 -32 0 -21 24
-15 50 12 30 31 50 18 50 -33 0 -36 0 -36 15 -14 14 18 19 20 36 9 17 -10 19
-19 14 -52 l-6 -39 24 22 c13 12 28 22 34 22 16 0 122 -50 128 -60 3 -5 12 -7
20 -3 8 3 23 2 33 -3 9 -4 40 -9 67 -11 36 -2 54 -9 64 -23 13 -19 13 -19 32
3 15 17 18 19 19 6 0 -9 -7 -22 -15 -29 -8 -7 -15 -23 -15 -36 0 -13 -4 -24
-10 -24 -5 0 -10 10 -10 23 0 12 -7 31 -16 42 -13 17 -16 18 -24 5 -5 -8 -10
-25 -10 -37 0 -12 -4 -25 -10 -28 -6 -4 -10 10 -10 34 0 53 -16 61 -24 11 -3
-22 -11 -40 -16 -40 -6 0 -10 3 -10 8 0 4 -13 8 -30 9 -56 4 -62 6 -72 35 -12
33 -24 36 -31 8 -5 -21 -5 -21 -51 1 -39 20 -44 25 -35 42 14 26 3 34 -19 14
-28 -26 -34 -21 -30 23 l3 40 -22 -28 c-12 -15 -22 -21 -23 -14 0 6 -6 11 -12
10 -9 -2 -13 10 -12 37 l2 39 -19 -23 c-11 -13 -22 -21 -26 -18 -3 4 0 13 6
21 10 12 9 13 -8 9 -24 -6 -51 12 -51 35 0 9 10 26 22 39 22 24 38 30 38 15z
m714 -201 c3 -5 -5 -12 -19 -15 -34 -9 -32 -24 3 -19 l27 4 -22 -17 c-13 -9
-23 -25 -23 -35 0 -11 -4 -19 -10 -19 -5 0 -10 5 -10 12 0 6 -7 4 -18 -5 -26
-24 -49 -21 -68 8 -14 21 -15 31 -5 51 10 22 17 26 46 22 19 -2 35 -1 35 3 0
4 10 10 23 12 12 2 25 5 29 6 4 0 9 -3 12 -8z"/>
<path d="M309 685 c-1 -5 -1 -21 0 -35 l2 -25 -19 24 c-22 28 -36 16 -18 -16
11 -22 12 -22 38 -5 24 16 25 19 12 42 -7 14 -14 21 -15 15z"/>
<path d="M336 606 c3 -9 11 -16 16 -16 13 0 5 23 -10 28 -7 2 -10 -2 -6 -12z"/>
<path d="M302 589 c2 -7 10 -15 17 -17 8 -3 12 1 9 9 -2 7 -10 15 -17 17 -8 3
-12 -1 -9 -9z"/>
<path d="M382 538 c7 -13 11 -27 10 -32 -2 -5 4 -3 13 4 14 12 14 15 -1 31
-24 26 -37 24 -22 -3z"/>
<path d="M340 532 c0 -15 28 -47 35 -40 8 8 -13 48 -25 48 -6 0 -10 -4 -10 -8z"/>
<path d="M1650 585 c0 -9 6 -12 15 -9 8 4 15 7 15 9 0 2 -7 5 -15 9 -9 3 -15
0 -15 -9z"/>
<path d="M1611 576 c-8 -10 -9 -16 -1 -21 5 -3 13 1 16 10 9 22 -1 29 -15 11z"/>
<path d="M1570 520 c-6 -11 -7 -20 -2 -20 10 0 32 21 32 32 0 16 -19 8 -30
-12z"/>
<path d="M1602 502 c-16 -33 -7 -41 19 -16 16 17 18 23 7 32 -10 8 -16 4 -26
-16z"/>
<path d="M1526 471 c-10 -11 -13 -22 -8 -25 5 -3 17 3 26 13 10 11 13 22 8 25
-5 3 -17 -3 -26 -13z"/>
<path d="M1550 445 c-19 -23 -1 -39 21 -19 10 9 16 21 13 25 -8 13 -20 11 -34
-6z"/>
<path d="M1248 293 c-20 -5 -24 -23 -5 -23 17 0 41 17 31 22 -5 2 -17 3 -26 1z"/>
<path d="M1263 257 c-25 -11 -31 -27 -10 -27 19 0 40 16 36 28 -3 6 -12 6 -26
-1z"/>
<path d="M660 311 c0 -11 31 -24 39 -16 3 3 -1 10 -9 15 -19 12 -30 12 -30 1z"/>
<path d="M640 281 c0 -9 30 -31 43 -31 11 0 14 27 4 27 -7 0 -20 4 -29 8 -11
4 -18 3 -18 -4z"/>
<path d="M725 280 c3 -5 13 -10 21 -10 8 0 14 5 14 10 0 6 -9 10 -21 10 -11 0
-17 -4 -14 -10z"/>
<path d="M820 250 c14 -10 26 -17 29 -15 6 7 -27 35 -41 35 -7 0 -2 -9 12 -20z"/>
<path d="M766 253 c-10 -10 -7 -25 4 -18 6 3 13 -1 16 -9 6 -16 34 -23 34 -8
-1 11 -47 42 -54 35z"/>
<path d="M1062 223 c3 -31 32 -43 41 -18 9 23 -3 45 -25 45 -15 0 -19 -6 -16
-27z"/>
<path d="M637 835 c42 -56 46 -72 23 -95 -26 -26 -35 -25 -54 2 -13 18 -16 19
-16 6 0 -22 35 -41 61 -33 26 9 41 48 30 78 -5 12 -24 36 -42 52 l-32 30 30
-40z"/>
<path d="M1333 838 c-16 -18 -33 -41 -36 -51 -9 -25 8 -64 32 -72 26 -8 61 11
61 33 0 13 -3 12 -16 -6 -19 -27 -28 -28 -54 -2 -23 23 -19 40 22 93 36 46 32
48 -9 5z"/>
<path d="M542 798 c-34 -34 -3 -118 70 -192 96 -95 198 -112 198 -32 0 25 -6
38 -20 46 -11 6 -20 7 -20 1 0 -5 7 -11 15 -15 19 -7 20 -50 1 -65 -54 -45
-246 121 -246 212 0 44 38 61 72 30 22 -20 24 -11 2 11 -18 19 -55 21 -72 4z"/>
<path d="M1366 794 c-22 -22 -20 -31 2 -11 34 31 72 14 72 -30 0 -91 -192
-257 -246 -212 -19 15 -18 58 1 65 8 4 15 10 15 15 0 6 -9 5 -20 -1 -14 -8
-20 -21 -20 -46 0 -80 102 -63 198 32 73 74 104 158 70 192 -17 17 -54 15 -72
-4z"/>
</g>
</svg>
